<svg width="21" height="20" viewBox="0 0 21 20" fill="none" xmlns="http://www.w3.org/2000/svg">
<g id="Supervised user circle" clip-path="url(#clip0_282_256)">
<path id="Vector" d="M10.4915 1.66669C5.89154 1.66669 2.1582 5.40002 2.1582 10C2.1582 14.6 5.89154 18.3334 10.4915 18.3334C15.0915 18.3334 18.8249 14.6 18.8249 10C18.8249 5.40002 15.0915 1.66669 10.4915 1.66669ZM13.4999 6.95002C14.3915 6.95002 15.1082 7.66669 15.1082 8.55835C15.1082 9.45002 14.3915 10.1667 13.4999 10.1667C12.6082 10.1667 11.8915 9.45002 11.8915 8.55835C11.8832 7.66669 12.6082 6.95002 13.4999 6.95002ZM8.49987 5.63335C9.5832 5.63335 10.4665 6.51669 10.4665 7.60002C10.4665 8.68335 9.5832 9.56669 8.49987 9.56669C7.41654 9.56669 6.5332 8.68335 6.5332 7.60002C6.5332 6.50835 7.4082 5.63335 8.49987 5.63335ZM8.49987 13.2417V16.3667C6.49987 15.7417 4.91654 14.2 4.21654 12.2334C5.09154 11.3 7.27487 10.825 8.49987 10.825C8.94154 10.825 9.49987 10.8917 10.0832 11.0084C8.71654 11.7334 8.49987 12.6917 8.49987 13.2417ZM10.4915 16.6667C10.2665 16.6667 10.0499 16.6584 9.8332 16.6334V13.2417C9.8332 12.0584 12.2832 11.4667 13.4999 11.4667C14.3915 11.4667 15.9332 11.7917 16.6999 12.425C15.7249 14.9 13.3165 16.6667 10.4915 16.6667Z" fill="#797878"/>
</g>
<defs>
<clipPath id="clip0_282_256">
<rect width="20" height="20" fill="white" transform="translate(0.5)"/>
</clipPath>
</defs>
</svg>
