<svg width="21" height="20" viewBox="0 0 21 20" fill="none" xmlns="http://www.w3.org/2000/svg">
<g id="Rate review" clip-path="url(#clip0_283_262)">
<path id="Vector" d="M17.1665 1.66669H3.83317C2.9165 1.66669 2.17484 2.41669 2.17484 3.33335L2.1665 18.3334L5.49984 15H17.1665C18.0832 15 18.8332 14.25 18.8332 13.3334V3.33335C18.8332 2.41669 18.0832 1.66669 17.1665 1.66669ZM5.49984 11.6667V9.60835L11.2332 3.87502C11.3998 3.70835 11.6582 3.70835 11.8248 3.87502L13.2998 5.35002C13.4665 5.51669 13.4665 5.77502 13.2998 5.94169L7.55817 11.6667H5.49984ZM15.4998 11.6667H9.24984L10.9165 10H15.4998V11.6667Z" fill="#797878"/>
</g>
<defs>
<clipPath id="clip0_283_262">
<rect width="20" height="20" fill="white" transform="translate(0.5)"/>
</clipPath>
</defs>
</svg>
